<svg id="Capa_1" enable-background="new 0 0 511.116 511.116" height="512" viewBox="0 0 511.116 511.116" width="512" xmlns="http://www.w3.org/2000/svg"><g><path d="m505.472 337.766-53.254-71.581c-1.416-1.902-3.646-3.023-6.018-3.023h-32.314c-4.142 0-7.5 3.357-7.5 7.5s3.358 7.5 7.5 7.5h28.546l46.84 62.96h-131.945l-46.841-62.96h71.438c4.142 0 7.5-3.357 7.5-7.5s-3.358-7.5-7.5-7.5h-313.685c-4.44 0-8.674 2.127-11.324 5.689l-51.272 68.916c-2.609 3.508-3.011 8.114-1.048 12.021 1.963 3.906 5.898 6.333 10.271 6.333h10.849v137.037c0 9.902 8.056 17.958 17.958 17.958h420.591c9.902 0 17.958-8.056 17.958-17.958v-137.037h14.028c4.373 0 8.308-2.428 10.271-6.335s1.561-8.513-1.049-12.02zm-464.757 155.392v-137.037h41.09c4.142 0 7.5-3.357 7.5-7.5s-3.358-7.5-7.5-7.5h-59.961l46.84-62.96h211.946l-46.841 62.96h-120.021c-4.142 0-7.5 3.357-7.5 7.5s3.358 7.5 7.5 7.5h121.783c3.616 0 7.063-1.732 9.222-4.634l43.285-58.18v202.809h-244.385c-1.631 0-2.958-1.327-2.958-2.958zm381.545 2.958h-69.041v-75.88l32.149 10.71c1.539.514 3.202.514 4.741 0l32.15-10.71v75.88zm44.962-2.958c0 1.631-1.327 2.958-2.958 2.958h-27.004v-82.14c0-3.361-1.628-6.542-4.354-8.507-2.726-1.966-6.259-2.506-9.448-1.442l-35.718 11.898-34.373-11.45c-3.5-1.166-7.376-.575-10.368 1.582-2.993 2.157-4.779 5.647-4.779 9.337v80.722h-35.161v-202.809l43.285 58.18c2.159 2.901 5.606 4.634 9.222 4.634h111.657v137.037z"/><path d="m173.749 100.716c4.137-.201 7.328-3.718 7.127-7.855-.102-2.094-.122-4.143-.06-6.091 1.215-38.184 32.025-69.661 70.144-71.662 20.596-1.069 40.163 6.112 55.07 20.259 14.918 14.155 23.134 33.272 23.134 53.829 0 23.8-11.563 46.324-30.93 60.252-6.373 4.584-10.177 11.987-10.177 19.806v1.046c-.549-.037-1.101-.063-1.659-.063h-6.437v-57.967h9.927c13.745 0 24.927-11.182 24.927-24.927s-11.182-24.927-24.927-24.927-24.927 11.182-24.927 24.927v9.927h-19.981v-9.927c0-13.745-11.182-24.927-24.927-24.927s-24.927 11.182-24.927 24.927 11.182 24.927 24.927 24.927h9.927v57.966h-8.442c-.558 0-1.11.026-1.659.063v-2.504c0-7.59-3.592-14.836-9.607-19.385-9.439-7.137-17.127-16.537-22.235-27.185-1.792-3.735-6.271-5.308-10.006-3.52-3.735 1.792-5.31 6.271-3.519 10.006 6.137 12.796 15.374 24.09 26.712 32.663 2.288 1.73 3.654 4.504 3.654 7.42v9.1c-4.658 4.419-7.572 10.659-7.572 17.572 0 13.361 10.87 24.231 24.231 24.231h2.695v.646c0 16.948 13.789 30.737 30.737 30.737s30.737-13.789 30.737-30.737v-.646h.69c13.361 0 24.231-10.87 24.231-24.231 0-6.912-2.914-13.153-7.572-17.572v-7.642c0-3.004 1.471-5.855 3.935-7.628 23.275-16.738 37.171-43.815 37.171-72.43 0-24.713-9.876-47.694-27.809-64.711-17.92-17.003-41.421-25.661-66.178-24.354-45.838 2.405-82.889 40.253-84.35 86.163-.075 2.348-.051 4.803.07 7.297.202 4.137 3.717 7.317 7.855 7.127zm106.213-13.373c0-5.474 4.453-9.927 9.927-9.927s9.927 4.453 9.927 9.927-4.453 9.927-9.927 9.927h-9.927zm-59.908 9.927c-5.474 0-9.927-4.453-9.927-9.927s4.453-9.927 9.927-9.927 9.927 4.453 9.927 9.927v9.927zm24.926 15h19.981v57.966h-19.981zm25.728 107.075c0 8.678-7.06 15.737-15.737 15.737s-15.737-7.06-15.737-15.737v-.646h31.475v.646zm15.691-15.647h-64.86c-5.09 0-9.231-4.142-9.231-9.231s4.141-9.231 9.231-9.231h64.86c5.09 0 9.231 4.142 9.231 9.231s-4.141 9.231-9.231 9.231z"/><path d="m95.075 73.357 24.417 9.468c.891.345 1.808.509 2.709.509 3.006 0 5.843-1.819 6.995-4.79 1.498-3.862-.419-8.207-4.281-9.705l-24.417-9.468c-3.862-1.493-8.207.419-9.704 4.281s.419 8.206 4.281 9.705z"/><path d="m97.788 176.515c.901 0 1.818-.164 2.709-.509l24.417-9.467c3.862-1.498 5.779-5.843 4.281-9.704-1.498-3.862-5.842-5.777-9.704-4.282l-24.417 9.467c-3.862 1.498-5.779 5.843-4.281 9.704 1.153 2.971 3.989 4.791 6.995 4.791z"/><path d="m388.741 83.333c.901 0 1.818-.164 2.709-.509l24.417-9.468c3.862-1.498 5.779-5.843 4.281-9.705-1.497-3.861-5.841-5.775-9.704-4.281l-24.417 9.468c-3.862 1.498-5.779 5.843-4.281 9.705 1.152 2.971 3.988 4.79 6.995 4.79z"/><path d="m386.027 166.539 24.417 9.467c.892.345 1.808.509 2.709.509 3.006 0 5.843-1.82 6.995-4.791 1.498-3.861-.419-8.206-4.281-9.704l-24.417-9.467c-3.864-1.493-8.207.421-9.704 4.282-1.498 3.861.419 8.206 4.281 9.704z"/></g></svg>