<svg id="Capa_1" enable-background="new 0 0 511.999 511.999" height="512" viewBox="0 0 511.999 511.999" width="512" xmlns="http://www.w3.org/2000/svg"><g><path d="m255.999 511.999c140.39 0 256-113.44 256-256 0-141.49-114.496-255.999-255.999-255.999-141.379 0-256 114.492-256 256 0 141.638 114.786 255.999 255.999 255.999zm240.873-263.499h-81.213c-.518-20.79-3.183-41.439-7.902-61.576 34.193-7.656 51.311-27.153 59.743-46.656 18.08 32.931 28.205 69.807 29.372 108.232zm0 15c-1.167 38.424-11.292 75.301-29.373 108.234-8.403-19.422-25.494-38.984-59.741-46.656 4.719-20.133 7.384-40.778 7.901-61.577h81.213zm-240.872 233.499c-50.337 0-98.318-15.33-138.614-43.779 36.15-6.729 74.321-20.981 116.101-43.317 58.529-31.291 91.258-78.396 155.53-72.568-20.009 67.893-63.777 123.399-118.806 159.234-4.914.289-10.241.43-14.211.43zm45.095-4.204c48.367-38.321 85.062-91.192 102.878-153.2 28.615 6.272 46.57 22.666 53.454 48.837-35.254 53.383-90.946 92.053-156.332 104.363zm156.337-369.222c-6.881 26.17-24.837 42.556-53.456 48.829-6.138-21.368-14.621-42.038-25.336-61.542-1.994-3.63-6.555-4.958-10.185-2.962-3.63 1.994-4.956 6.554-2.962 10.185 9.863 17.954 17.731 36.95 23.516 56.582-64.269 5.825-96.987-41.273-155.522-72.568-41.779-22.336-79.95-36.589-116.102-43.317 40.296-28.45 88.276-43.78 138.615-43.78 4.514 0 9.797.171 14.212.431 30.171 19.638 56.098 44.444 77.087 73.757 2.41 3.368 7.097 4.145 10.464 1.732 3.368-2.412 4.144-7.097 1.731-10.464-16.611-23.199-36.171-43.706-58.353-61.243 65.462 12.337 121.101 51.07 156.291 104.36zm-442.305 139.927h217.122c4.143 0 7.5-3.358 7.5-7.5s-3.357-7.5-7.5-7.5h-217.122c2.045-67.352 31.805-131.535 85.984-177.139 38.561 5.127 79.591 19.524 125.304 43.964 58.064 31.043 94.008 81.956 166.511 74.034 4.602 19.33 7.205 39.166 7.729 59.141h-133.407c-4.143 0-7.5 3.358-7.5 7.5s3.357 7.5 7.5 7.5h133.406c-.523 19.983-3.13 39.815-7.731 59.14-72.469-7.917-108.545 43.046-166.508 74.035-45.714 24.44-86.744 38.837-125.304 43.964-51.414-43.28-83.829-106.207-85.984-177.139z"/></g></svg>