<svg height="512pt" viewBox="0 0 512 511" width="512pt" xmlns="http://www.w3.org/2000/svg"><path d="m504.5 496.644531h-14.902344v-132.089843c0-5.808594-3.699218-11.953126-8.820312-14.6875l-49.96875-28.359376v-17.59375l16.949218 10.835938c1.25.800781 2.648438 1.183594 4.03125 1.183594 2.472657 0 4.894532-1.222656 6.324219-3.460938 2.230469-3.492187 1.210938-8.128906-2.277343-10.359375l-94.976563-60.722656v-17.316406c0-4.144531-3.355469-7.5-7.5-7.5-4.140625 0-7.5 3.355469-7.5 7.5v7.726562l-81.605469-52.175781c-4.785156-3.054688-11.726562-3.054688-16.507812 0l-81.605469 52.175781v-58.1875l89.53125-57.242187c.179687-.035156.476563-.035156.65625 0l89.53125 57.242187v15.460938c0 4.140625 3.359375 7.5 7.5 7.5 4.144531 0 7.5-3.359375 7.5-7.5v-5.871094l8.953125 5.726563c1.253906.800781 2.652344 1.179687 4.035156 1.179687 2.472656 0 4.894532-1.222656 6.324219-3.460937 2.230469-3.488282 1.210937-8.125-2.277344-10.359376l-103.320312-66.054687v-41.394531h23.808593c6.894532 0 12.5-5.605469 12.5-12.5v-12.226563c0-6.890625-5.605468-12.5-12.5-12.5h-23.808593v-18.613281c0-6.894531-5.605469-12.5-12.5-12.5h-12.148438c-6.894531 0-12.5 5.605469-12.5 12.5v18.617188h-23.808593c-6.894532 0-12.5 5.605468-12.5 12.5v12.222656c0 6.894531 5.605468 12.5 12.5 12.5h23.808593v41.398437l-103.320312 66.054688c-3.488281 2.230469-4.507813 6.867187-2.277344 10.359375 2.230469 3.488281 6.867187 4.507812 10.359375 2.277344l8.953125-5.722657v58.183594l-94.980469 60.722656c-3.488281 2.230469-4.507812 6.867188-2.277344 10.359375 2.230469 3.488282 6.871094 4.507813 10.359376 2.277344l16.949218-10.835938v17.59375l-49.972656 28.359376c-5.121094 2.734374-8.820312 8.878906-8.820312 14.6875v132.09375h-14.898438c-4.140625 0-7.5 3.355468-7.5 7.5 0 4.140624 3.359375 7.5 7.5 7.5h497c4.144531 0 7.5-3.359376 7.5-7.5 0-4.144532-3.355469-7.503907-7.5-7.503907zm-288.382812-442.804687v-7.222656h23.808593c6.890625 0 12.5-5.609376 12.5-12.5v-18.617188h7.148438v18.617188c0 6.890624 5.609375 12.5 12.5 12.5h23.808593v7.222656h-23.808593c-6.890625 0-12.5 5.609375-12.5 12.5v35.398437c-2.335938-.515625-4.816407-.515625-7.148438 0v-35.398437c0-6.890625-5.609375-12.5-12.5-12.5zm-134.925782 442.804687h-43.789062l-.003906-132.015625c.054687-.4375.582031-1.3125.871093-1.523437.085938-.042969.171875-.089844.253907-.136719l42.667968-24.214844zm167.308594 0h-25.425781v-69.730469c0-15.640624 10.875-28.769531 25.425781-32.1875zm40.425781 0h-25.425781v-101.917969c14.554688 3.417969 25.425781 16.546876 25.425781 32.1875zm185.671875 0h-43.789062v-95.570312c0-4.144531-3.359375-7.5-7.5-7.5-4.144532 0-7.5 3.355469-7.5 7.5v95.570312h-111.882813v-69.730469c0-26.503906-21.5-48.0625-47.925781-48.0625s-47.925781 21.558594-47.925781 48.0625v69.730469h-111.882813v-202.320312l159.480469-101.960938c.179687-.039062.476563-.039062.65625 0l159.480469 101.960938v70.75c0 4.140625 3.355468 7.5 7.5 7.5 4.140625 0 7.5-3.359375 7.5-7.5v-26.320313l42.667968 24.21875c.082032.046875.097657.050782.183594.09375.359375.25.890625 1.125.9375 1.488282zm0 0"/><path d="m161.800781 372.960938h-29c-6.890625 0-12.5 5.609374-12.5 12.5v71.789062c0 6.894531 5.609375 12.5 12.5 12.5h29c6.894531 0 12.5-5.605469 12.5-12.5v-17.175781c0-4.144531-3.355469-7.5-7.5-7.5-4.140625 0-7.5 3.355469-7.5 7.5v14.675781h-24v-66.789062h24v16.113281c0 4.140625 3.359375 7.5 7.5 7.5 4.144531 0 7.5-3.359375 7.5-7.5v-18.613281c0-6.890626-5.605469-12.5-12.5-12.5zm0 0"/><path d="m379.195312 372.960938h-29c-6.890624 0-12.5 5.609374-12.5 12.5v71.789062c0 6.894531 5.609376 12.5 12.5 12.5h29c6.894532 0 12.5-5.605469 12.5-12.5v-71.789062c0-6.890626-5.605468-12.5-12.5-12.5zm-2.5 81.789062h-24v-66.789062h24zm0 0"/><path d="m161.800781 298.871094h-29c-6.890625 0-12.5 5.605468-12.5 12.5v35.617187c0 6.890625 5.609375 12.5 12.5 12.5h29c6.894531 0 12.5-5.609375 12.5-12.5v-35.617187c0-6.894532-5.605469-12.5-12.5-12.5zm-2.5 45.617187h-24v-30.617187h24zm0 0"/><path d="m379.195312 298.871094h-29c-6.890624 0-12.5 5.605468-12.5 12.5v35.617187c0 6.890625 5.609376 12.5 12.5 12.5h29c6.894532 0 12.5-5.609375 12.5-12.5v-35.617187c0-6.894532-5.605468-12.5-12.5-12.5zm-2.5 45.617187h-24v-30.617187h24zm0 0"/><path d="m256 253.253906c-26.8125 0-48.625 21.828125-48.625 48.660156 0 26.832032 21.8125 48.660157 48.625 48.660157s48.625-21.832031 48.625-48.660157c0-26.832031-21.8125-48.660156-48.625-48.660156zm0 82.320313c-18.539062 0-33.625-15.101563-33.625-33.660157 0-18.558593 15.085938-33.660156 33.625-33.660156s33.625 15.101563 33.625 33.660156c0 18.558594-15.085938 33.660157-33.625 33.660157zm0 0"/></svg>