<svg id="Capa_1" enable-background="new 0 0 512.537 512.537" height="512" viewBox="0 0 512.537 512.537" width="512" xmlns="http://www.w3.org/2000/svg"><g><g><g><path d="m306.135 253.293c-14.333-1.73-28.606 2.794-39.161 12.406-4.533 4.128-8.043 8.715-10.707 12.988-2.664-4.273-6.175-8.86-10.708-12.988-10.555-9.612-24.832-14.138-39.161-12.406-14.311 1.725-27.079 9.494-35.031 21.313-5.874 8.731-8.74 19.218-8.518 31.17.254 13.714 4.617 27.281 12.617 39.234 5.539 8.275 27.051 37.188 71.319 61.794 2.924 1.625 6.203 2.438 9.481 2.438s6.557-.813 9.481-2.438c44.268-24.606 65.78-53.519 71.319-61.794 8-11.953 12.363-25.52 12.617-39.234.222-11.952-2.645-22.439-8.518-31.17-7.951-11.819-20.719-19.588-35.03-21.313zm18.467 83.374c-5.067 7.569-24.81 34.052-66.142 57.027-1.353.752-3.034.751-4.386 0-41.332-22.975-61.075-49.458-66.142-57.027-6.397-9.557-9.885-20.335-10.085-31.168-.163-8.815 1.844-16.392 5.966-22.52 5.516-8.199 14.402-13.592 24.38-14.794 1.407-.169 2.811-.253 4.208-.253 8.535 0 16.76 3.123 23.058 8.858 9.938 9.05 13.549 21.485 13.577 21.584.895 3.243 3.843 5.48 7.207 5.493h.027c3.353 0 6.304-2.24 7.219-5.467.035-.125 3.646-12.56 13.583-21.609 7.329-6.674 17.264-9.812 27.267-8.605 9.978 1.203 18.864 6.595 24.38 14.794 4.122 6.127 6.129 13.704 5.966 22.519-.199 10.833-3.687 21.611-10.083 31.168z"/><path d="m476.029 453.223v-64.094c0-4.142-3.358-7.5-7.5-7.5s-7.5 3.358-7.5 7.5v60.898c-1.305-.093-2.618-.157-3.947-.157-1.922 0-3.821.1-5.694.293-8.604-21.478-29.606-36.697-54.122-36.697-20.55 0-39.65 11.008-50.091 28.458-1.943-.181-3.882-.272-5.801-.272-32.414 0-59.206 24.459-62.932 55.887h-44.348c-3.726-31.428-30.519-55.887-62.932-55.887-1.919 0-3.858.091-5.801.272-10.44-17.45-29.541-28.458-50.091-28.458-24.517 0-45.53 15.216-54.136 36.695-1.868-.192-3.762-.291-5.68-.291-1.328 0-2.642.064-3.947.157v-188.407l15.817-13.002 185.619-152.586c1.927-1.585 4.725-1.585 6.651 0l201.435 165.588v92.551c0 4.142 3.358 7.5 7.5 7.5s7.5-3.358 7.5-7.5v-80.22l7.129 5.861c3.271 2.689 7.237 4.073 11.258 4.073 2.58 0 5.184-.57 7.641-1.731 6.286-2.971 10.191-9.135 10.191-16.087v-49.101c0-5.272-2.316-10.239-6.354-13.628l-236.615-198.592c-7.54-6.329-18.483-6.328-26.021 0l-112.669 94.563v-33.337c6.174-.49 11.05-5.66 11.05-11.958v-24.951c0-6.62-5.386-12.005-12.006-12.005h-74.034c-6.62 0-12.006 5.386-12.006 12.005v24.952c0 6.298 4.877 11.468 11.05 11.958v12.817c0 4.142 3.358 7.5 7.5 7.5s7.5-3.358 7.5-7.5v-12.77h45.945v45.717l-45.945 38.562v-22.83c0-4.142-3.358-7.5-7.5-7.5s-7.5 3.358-7.5 7.5v35.581l-48 40.287c-4.039 3.389-6.354 8.356-6.354 13.628v49.101c0 6.953 3.905 13.117 10.191 16.087 6.287 2.97 13.528 2.074 18.899-2.343l7.129-5.86v179.273c-21.114 7.745-36.22 28.049-36.22 51.814 0 4.142 3.358 7.5 7.5 7.5h496.961c4.142 0 7.5-3.358 7.5-7.5 0-23.766-15.106-44.069-36.22-51.814zm-417.436-402.203v-18.963h68.046v18.963zm-38.739 217.203c-1.189.977-2.37.65-2.966.368-.598-.282-1.6-.985-1.6-2.525v-49.101c0-.827.363-1.606.998-2.139l236.615-198.59c1.951-1.638 4.783-1.638 6.734 0l236.616 198.591c.633.532.997 1.311.997 2.139v49.101c0 1.539-1.002 2.243-1.6 2.525-.597.282-1.777.61-2.966-.368l-223.562-183.78c-3.723-3.061-8.287-4.591-12.851-4.591s-9.128 1.53-12.851 4.591zm-3.864 229.314c3.523-18.575 19.88-32.667 39.465-32.667s35.941 14.091 39.464 32.667zm94.108.002c-2.721-19.926-16.116-36.49-34.222-43.734 6.84-14.935 21.921-25.339 39.394-25.339 16.653 0 32.026 9.734 39.164 24.798 1.45 3.061 4.768 4.768 8.105 4.17 2.887-.519 5.788-.782 8.623-.782 24.133 0 44.196 17.757 47.811 40.891zm183.465.004c3.615-23.134 23.678-40.891 47.811-40.891 2.834 0 5.736.263 8.623.782 3.332.6 6.655-1.109 8.105-4.17 7.138-15.064 22.51-24.798 39.164-24.798 17.473 0 32.546 10.407 39.384 25.343-18.101 7.246-31.491 23.807-34.211 43.73zm124.055-.006c3.523-18.575 19.879-32.667 39.464-32.667s35.941 14.091 39.465 32.667z"/></g></g></g></svg>