<svg id="Capa_1" enable-background="new 0 0 511 511" height="512" viewBox="0 0 511 511" width="512" xmlns="http://www.w3.org/2000/svg"><path d="m45 315.5h-15v-15h15zm0-30h-15v-15h15zm0-30h-15v-60h15z"/><path d="m481 315.5h-15v-15h15zm0-30h-15v-15h15zm0-30h-15v-60h15z"/><path d="m480.5 45h-15v-15h15zm-30 0h-38v-15h38z"/><path d="m188 248h15v15h-15z"/><path d="m308 248h15v15h-15z"/><path d="m248 143h15v15h-15z"/><path d="m248 353h15v15h-15z"/><path d="m98.5 481h-38v-15h38zm-53 0h-15v-15h15z"/><path d="m15 37.5c0-12.407 10.094-22.5 22.5-22.5h176.285v-15h-176.285c-20.678 0-37.5 16.822-37.5 37.5v156.572h15z"/><path d="m496 473.5c0 12.407-10.094 22.5-22.5 22.5h-352.57v15h352.57c20.678 0 37.5-16.822 37.5-37.5v-332.857h-15z"/><path d="m473.5 0h-244.715v15h244.715c12.406 0 22.5 10.093 22.5 22.5v88.143h15v-88.143c0-20.678-16.822-37.5-37.5-37.5z"/><path d="m15 473.5v-264.428h-15v264.428c0 20.678 16.822 37.5 37.5 37.5h68.43v-15h-68.43c-12.406 0-22.5-10.093-22.5-22.5z"/><path d="m195.5 404.183 60 35 60-35 60 35 67.5-39.375v-78.615l-60-35v-25.693h-15v25.692l-52.5 30.625-52.5-30.625v-61.385l52.5-30.625 52.5 30.625v20.693h15v-20.692l60-35v-78.615l-38.849-22.662 11.766-13.531h64.583v-15h-71.417l-18.12 20.838-15.463-9.02-60 35-16.886-9.85-7.559 12.957 16.945 9.883v61.384l-52.5 30.625-52.5-30.625v-61.384l52.5-30.625 22.599 13.183 7.559-12.957-30.158-17.592-60 35-60-35-67.5 39.375v31.232h15v-22.617l52.5-30.625 52.5 30.625v61.385l-52.5 30.625-52.5-30.625v-23.768h-15v32.383l60 35v61.385l-60 35v78.615l38.849 22.662-11.766 13.531h-64.583v15h71.417l18.12-20.838 15.463 9.02zm127.5-74.375 52.5-30.625 52.5 30.625v61.385l-52.5 30.625-52.5-30.626zm0-210 52.5-30.625 52.5 30.625v61.385l-52.5 30.625-52.5-30.626zm-180 105 52.5-30.625 52.5 30.625v61.385l-22.657 13.216 7.559 12.957 22.599-13.183 52.5 30.625v61.384l-52.5 30.625-52.501-30.625v-61.384l16.944-9.884-7.559-12.957-16.886 9.85-52.499-30.625zm-60 166.384v-61.385l52.5-30.625 52.5 30.625v61.385l-52.5 30.625z"/><path d="m168 360.5c0-17.92-14.579-32.5-32.5-32.5s-32.5 14.58-32.5 32.5 14.579 32.5 32.5 32.5 32.5-14.58 32.5-32.5zm-50 0c0-9.649 7.851-17.5 17.5-17.5s17.5 7.851 17.5 17.5-7.851 17.5-17.5 17.5-17.5-7.851-17.5-17.5z"/><path d="m403 123h-55v55h55zm-15 40h-25v-25h25z"/></svg>