<svg id="outline" height="512" viewBox="0 0 512 512" width="512" xmlns="http://www.w3.org/2000/svg"><path d="m311.95068 352.87036a74.80087 74.80087 0 0 1 24.04932 55.12964 8.00008 8.00008 0 0 0 8 8h32a8.00008 8.00008 0 0 0 8-8v-136a8.00055 8.00055 0 0 0 -1.6001-4.7998l-47.0487-62.73145q.6378-10.03015.6488-20.13575a222.69815 222.69815 0 0 0 -74.68506-166.3125 8.00217 8.00217 0 0 0 -10.62988 0 222.69815 222.69815 0 0 0 -74.68506 166.3125q0 10.10412.6488 20.13574l-47.0487 62.73146a8.00055 8.00055 0 0 0 -1.6001 4.7998v136a8.00008 8.00008 0 0 0 8 8h32a8.00008 8.00008 0 0 0 8-8 74.80049 74.80049 0 0 1 24.04938-55.12939 7.99939 7.99939 0 0 0 7.95062 7.12939h5.75366l-5.51489 22.05957a8.00058 8.00058 0 0 0 7.76123 9.94043h4.04584a88.60749 88.60749 0 0 0 16.80523 85.95215l13.07471 15.2539a7.99984 7.99984 0 0 0 12.14844 0l13.07471-15.2539a88.60749 88.60749 0 0 0 16.80523-85.95215h4.04584a8.00058 8.00058 0 0 0 7.76123-9.94043l-5.51489-22.05957h5.75366a7.99944 7.99944 0 0 0 7.95068-7.12964zm-15.95068-8.87036h-80v-32h80zm-40-192a24 24 0 1 1 -24 24 24.0275 24.0275 0 0 1 24-24zm112 122.667v125.333h-16.34521a90.72025 90.72025 0 0 0 -33.89161-63.23438l-5.76318-4.61035v-26.70385l3.94482-10.51978a314.209 314.209 0 0 0 17.02318-66.97464zm-67.03662 14.64649-2.50733 6.68651h-34.45605v-80.80493a40.004 40.004 0 0 0 0-78.39014v-24.80493h42.89386a206.38468 206.38468 0 0 1 13.10614 72.333 297.97169 297.97169 0 0 1 -19.03662 104.98048zm-44.96338-254.44044a206.50216 206.50216 0 0 1 44.1192 61.12695h-88.2384a206.50216 206.50216 0 0 1 44.1192-61.12695zm-50.89386 77.12695h42.89386v24.80493a40.004 40.004 0 0 0 0 78.39014v80.80493h-34.456l-2.50733-6.68555a297.98093 297.98093 0 0 1 -19.03667-104.98145 206.38468 206.38468 0 0 1 13.10614-72.333zm-10.86884 224.76562a90.719 90.719 0 0 0 -33.89209 63.23438h-16.34521v-125.333l35.032-46.71a314.22122 314.22122 0 0 0 17.02314 66.97559l3.94486 10.51907v26.70361zm47.51661 23.23438 4 16h-19.50782l4-16zm21.24658 107.54-7.00049 8.167-7.00049-8.167a72.65285 72.65285 0 0 1 -11.86615-75.54h37.73328a72.65285 72.65285 0 0 1 -11.86615 75.54zm22.75342-91.54h-19.50782l4-16h11.50782z"/><path d="m48 336h16v104h-16z"/><path d="m48 456h16v24h-16z"/><path d="m80 288h16v80h-16z"/><path d="m80 384h16v24h-16z"/><path d="m448 336h16v104h-16z"/><path d="m448 456h16v24h-16z"/><path d="m416 288h16v80h-16z"/><path d="m416 384h16v24h-16z"/><path d="m40 224h16v16h16v-16h16v-16h-16v-16h-16v16h-16z"/><path d="m392 88h16v-16h-16v-16h-16v16h-16v16h16v16h16z"/><path d="m112 152h24v16h-24z"/><path d="m48 128h24v16h-24z"/><path d="m88 88h24v16h-24z"/><path d="m368 152h24v16h-24z"/><path d="m408 200h24v16h-24z"/><path d="m448 136h24v16h-24z"/></svg>