<?xml version="1.0" encoding="utf-8"?>
<!-- Generator: Adobe Illustrator 15.1.0, SVG Export Plug-In  -->
<!DOCTYPE svg PUBLIC "-//W3C//DTD SVG 1.1//EN" "http://www.w3.org/Graphics/SVG/1.1/DTD/svg11.dtd" [
	<!ENTITY ns_flows "http://ns.adobe.com/Flows/1.0/">
]>
<svg version="1.1"
	 xmlns="http://www.w3.org/2000/svg" xmlns:xlink="http://www.w3.org/1999/xlink" xmlns:a="http://ns.adobe.com/AdobeSVGViewerExtensions/3.0/"
	 x="0px" y="0px" width="364px" height="418px" viewBox="-1.799 -0.954 364 418" enable-background="new -1.799 -0.954 364 418"
	 xml:space="preserve">
<defs>
</defs>
<polygon fill="#FFFFFF" points="0,103.923 180,0 360,103.923 360,311.767 180,415.689 0,311.767 "/>
<g>
	<path d="M284.753,123.851v4.746c-4.746,0.159-8.388,0.753-10.912,1.78c-2.533,1.031-4.237,2.929-5.103,5.693
		c-0.873,2.771-1.303,7.082-1.303,12.931V266.69c0,5.691,0.47,9.962,1.42,12.812c0.95,2.846,2.646,4.742,5.099,5.691
		c2.452,0.95,6.053,1.583,10.799,1.9v4.745c-4.588-0.313-10.481-0.512-17.676-0.597c-7.2-0.073-14.516-0.113-21.945-0.113
		c-8.07,0-15.625,0.04-22.66,0.113c-7.038,0.085-12.779,0.284-17.204,0.597v-4.745c5.375-0.317,9.451-0.95,12.219-1.9
		c2.765-0.949,4.628-2.846,5.578-5.691c0.946-2.85,1.421-7.12,1.421-12.812V139.036l2.136-0.235l-59.315,153.039h-3.798
		L98.021,139.275v109.854c0,9.653,0.475,17.051,1.425,22.186c0.95,5.144,3.085,8.82,6.406,11.033
		c3.322,2.221,8.543,3.796,15.661,4.746v4.745c-3.008-0.313-7-0.512-11.983-0.597c-4.983-0.073-9.692-0.113-14.117-0.113
		c-3.481,0-7.082,0.04-10.796,0.113c-3.719,0.085-6.844,0.284-9.372,0.597v-4.745c5.061-0.95,8.815-2.493,11.27-4.628
		c2.452-2.136,4.071-5.533,4.865-10.202c0.788-4.664,1.185-11.11,1.185-19.335V149.001c0-5.85-0.397-10.161-1.185-12.931
		c-0.794-2.765-2.456-4.662-4.983-5.693c-2.533-1.027-6.251-1.622-11.151-1.78v-4.746c2.527,0.16,5.653,0.319,9.372,0.475
		c3.714,0.158,7.315,0.237,10.796,0.237c8.066,0,15.816-0.079,23.253-0.237c7.433-0.156,14.155-0.315,20.167-0.475l48.403,112.942
		l-6.643,6.645l45.792-118.874c3.004,0,6.13,0,9.37,0c3.239,0,6.368,0,9.377,0c7.43,0,14.745-0.079,21.945-0.237
		C274.271,124.17,280.165,124.011,284.753,123.851z"/>
</g>
</svg>
