<?xml version="1.0" standalone="no"?>
<!DOCTYPE svg PUBLIC "-//W3C//DTD SVG 20010904//EN"
 "http://www.w3.org/TR/2001/REC-SVG-20010904/DTD/svg10.dtd">
<svg version="1.0" xmlns="http://www.w3.org/2000/svg"
 width="700.000000pt" height="700.000000pt" viewBox="0 0 700.000000 700.000000"
 preserveAspectRatio="xMidYMid meet">
<metadata>
Created by potrace 1.11, written by Peter Selinger 2001-2013
</metadata>
<g transform="translate(0.000000,700.000000) scale(0.100000,-0.100000)"
fill="#000000" stroke="none">
<path d="M3420 6942 c-88 -52 -317 -185 -360 -209 -40 -23 -222 -128 -450
-260 -85 -50 -261 -151 -390 -225 -129 -75 -251 -145 -270 -156 -19 -12 -46
-27 -60 -35 -32 -18 -29 -16 -455 -262 -198 -114 -396 -229 -440 -255 -44 -25
-177 -102 -296 -171 l-216 -124 0 -1737 c0 -1582 1 -1739 16 -1751 9 -8 120
-73 246 -146 127 -73 237 -136 245 -141 8 -5 69 -40 135 -78 171 -99 514 -296
555 -320 19 -10 134 -77 255 -147 121 -70 245 -141 275 -158 30 -16 60 -34 67
-39 7 -5 27 -18 45 -27 18 -10 62 -35 98 -56 36 -20 85 -49 109 -63 100 -56
147 -83 161 -92 13 -8 117 -68 274 -159 356 -205 448 -258 486 -282 44 -28 44
-28 75 -9 41 25 95 56 125 73 27 14 515 296 620 357 203 119 622 360 626 360
2 0 21 11 42 24 20 14 60 37 87 53 49 27 245 140 308 177 310 180 619 356 627
356 5 0 10 4 10 8 0 4 19 18 43 30 23 12 56 30 72 40 17 9 119 68 228 131
l197 114 0 1741 0 1741 -173 99 c-94 54 -200 116 -234 137 -34 22 -64 39 -67
39 -2 0 -77 43 -167 95 -89 52 -163 95 -165 95 -2 0 -32 17 -66 38 -35 21 -70
41 -78 45 -8 4 -28 15 -45 26 -32 19 -855 495 -917 529 -41 23 -104 61 -133
80 -11 6 -27 15 -35 19 -8 4 -123 70 -255 146 -132 77 -262 152 -290 168 -27
15 -124 71 -215 123 -91 53 -169 96 -175 96 -5 0 -39 -17 -75 -38z"/>
</g>
</svg>
